<svg width="512" height="512" viewBox="0 0 512 512" fill="none" xmlns="http://www.w3.org/2000/svg">
<path d="M317.953 120.107C313.372 118.411 310.822 113.478 312.096 108.761C316.47 92.5491 331.184 57.419 377.733 47.167C413.223 39.35 429.717 33.6181 437.311 30.1811C440.007 28.9611 442.927 31.2731 442.368 34.1791C436.973 62.2291 411.756 154.835 317.953 120.107ZM342.398 145.752C331.464 143.979 321.003 143.503 311.567 143.954C294.582 144.765 278.302 150.826 264.517 160.783C254.577 167.963 241.585 178.387 228.734 191.728C225.407 195.181 219.586 192.178 220.608 187.493C223.243 175.411 229.292 158.028 243.171 141.886C247.447 136.913 245.071 129.211 238.77 127.39C229.17 124.617 218.805 123.106 206.864 123.096C124.095 123.029 56.9431 190.071 56.8761 272.839C56.8511 291.576 60.3509 310.15 67.1931 327.593L67.1571 327.599C94.9401 402.974 147.081 434.191 175.278 446.019C179.754 447.896 183.723 450.782 186.83 454.511C189.078 457.21 191.017 460.196 192.203 463.501C195.763 473.426 206.119 482.635 215.977 485.092C232.192 489.133 249.224 491.113 266.78 490.729C368.245 488.505 445.748 405.81 454.308 304.683C466.275 163.325 342.398 145.752 342.398 145.752ZM394.938 259.022C394.414 274.381 385.912 286.556 375.95 286.216C365.988 285.875 361.489 274.131 362.013 258.772C362.538 243.413 367.889 230.254 377.851 230.595C387.813 230.936 395.463 243.663 394.938 259.022ZM418.089 304.07C415.364 313.686 408.1 320.049 401.862 318.283C395.625 316.515 394.613 308.398 397.338 298.782C400.064 289.166 405.492 281.691 411.73 283.458C417.968 285.225 420.813 294.453 418.089 304.07ZM267.492 25.4921L267.751 25.2311C274.117 18.8091 284.77 20.329 289.084 28.203C299.737 47.6501 311.98 83.8451 285.056 120.857C283.698 122.724 281.299 123.53 279.064 122.954L278.936 122.921C275.663 122.077 273.734 118.71 274.706 115.492C278.625 102.524 285.306 70.2211 265.848 42.6221C262.12 37.3371 262.938 30.0841 267.492 25.4921Z" fill="#2F6F47"/>
</svg>
